<?xml version="1.0" encoding="UTF-8"?>
<svg xmlns="http://www.w3.org/2000/svg" version="1.1" viewBox="0 0 1537.8 1281">
  <defs>
    <style>
      .cls-1 {
        fill: #f1efe7;
      }
    </style>
  </defs>
  <!-- Generator: Adobe Illustrator 28.7.0, SVG Export Plug-In . SVG Version: 1.2.0 Build 23)  -->
  <g>
    <g id="Layer_1">
      <g>
        <path class="cls-1" d="M64.1,14.4l113.8,487.9c.9,4.6,1.6,9.6,2.1,15,.5,5.5.7,10.5.7,15h.9c0-4.6.2-9.6.7-15s1.2-10.4,2.1-15L298.2,14.4h49.4v601.2h-46.1V247.2c0-17.2.7-36.2,2.1-57.1,1.4-20.9,3.1-39.9,4.9-57.1h-.9c-1.9,16.6-4.5,34.9-8,55-3.5,20-7,38.1-10.8,54.1l-84.6,373.5h-46.1L73.4,242c-3.8-16-7.4-34.1-10.8-54.1-3.5-20-6.1-38.4-8-55h-.9c1.9,17.2,3.5,36.2,4.9,57.1,1.4,20.9,2.1,39.9,2.1,57.1v368.5H14.6V14.4h49.5Z"/>
        <path class="cls-1" d="M359.8,615.6L483.9,14.4h67.2l124.1,601.2h-49.4l-30.6-143.4h-156l-29.6,143.4h-49.8ZM453.8,397.5h50.8c14.1,0,26.2,1.2,36.2,3.4,10,1.7,19.7,7.2,28.9,16.3,9.2,9.2,17.3,24.6,24.2,46.4l-76.6-373.6-63.5,307.5Z"/>
        <path class="cls-1" d="M711.4,431.8c1.6,34.4,10.3,61,26.1,79.9s37.1,28.6,63.7,29.2c29.8,0,52.9-9.5,69.3-28.3s24.7-46.7,24.7-83.3-3.2-31.8-9.6-42.1-14.9-18.8-25.4-25.3c-10.5-6.6-22.4-11.7-35.7-15.5-13.3-3.7-27-7.7-40.9-12-14-4.3-27.6-9.5-40.9-15.5s-25.2-14.5-35.7-25.3c-10.5-10.9-19-25-25.4-42.5s-9.6-39.4-9.6-65.7,3.4-56.8,10.1-79.5c6.7-22.6,16.1-41.4,28-56.3s25.9-26,41.8-33.5c16-7.4,33.1-10.9,51.2-10.3,16.9.6,32.7,4.3,47.2,11.2,14.6,6.9,27.4,17,38.6,30.5,11.1,13.5,20.1,30.2,27,50.2s11,43.5,12.2,70.4l-44.2,11.2c-1.6-29.8-8.6-53-21.2-69.6-12.5-16.6-32.4-24.9-59.7-24.9s-47.9,8.7-62.8,26.2c-14.9,17.5-22.3,42.2-22.3,74.3s3.2,28.5,9.6,37.4c6.4,8.9,14.9,16,25.4,21.5s22.4,9.9,35.7,13.3c13.3,3.4,27,7.2,40.9,11.2,13.9,4,27.6,9.2,40.9,15.5s25.2,15.3,35.7,27.1c10.5,11.7,19,26.8,25.4,45.1s9.6,41.8,9.6,70.4-2,42.2-5.9,64.8-11.1,43.5-21.6,62.7-24.8,34.9-42.8,47.2-41.1,18.5-69.3,18.5-47.5-5.2-64.4-15.5-30.5-23.9-40.7-40.8-17.5-35.9-21.9-57.1c-4.4-21.2-7-42.7-8-64.4l44.9-10.4Z"/>
        <path class="cls-1" d="M997.7,431.8c1.6,34.4,10.3,61,26.1,79.9,15.8,18.9,37.1,28.6,63.7,29.2,29.8,0,52.9-9.5,69.3-28.3s24.7-46.7,24.7-83.3-3.2-31.8-9.6-42.1-14.9-18.8-25.4-25.3c-10.5-6.6-22.4-11.7-35.7-15.5-13.3-3.7-27-7.7-40.9-12s-27.6-9.5-40.9-15.5-25.2-14.5-35.7-25.3c-10.5-10.9-19-25-25.4-42.5s-9.6-39.4-9.6-65.7,3.4-56.8,10.1-79.5c6.7-22.6,16.1-41.4,28-56.3s25.9-26,41.8-33.5c16-7.4,33.1-10.9,51.2-10.3,16.9.6,32.7,4.3,47.2,11.2,14.6,6.9,27.4,17,38.6,30.5,11.1,13.5,20.1,30.2,27,50.2s11,43.5,12.2,70.4l-44.2,11.2c-1.6-29.8-8.6-53-21.2-69.6-12.5-16.6-32.4-24.9-59.7-24.9s-47.9,8.7-62.8,26.2-22.3,42.2-22.3,74.3,3.2,28.5,9.6,37.4,14.9,16,25.4,21.5,22.4,9.9,35.7,13.3c13.3,3.4,26.9,7.2,40.9,11.2,13.9,4,27.6,9.2,40.9,15.5s25.2,15.3,35.7,27.1c10.5,11.7,19,26.8,25.4,45.1s9.6,41.8,9.6,70.4-2,42.2-5.9,64.8-11.1,43.5-21.6,62.7-24.8,34.9-42.8,47.2-41.1,18.5-69.3,18.5-47.5-5.2-64.4-15.5-30.5-23.9-40.7-40.8c-10.2-16.9-17.5-35.9-21.9-57.1-4.4-21.2-7.1-42.7-8-64.4l44.9-10.4Z"/>
        <path class="cls-1" d="M1218.6,615.6L1342.7,14.4h67.2l124.2,601.2h-49.4l-30.6-143.4h-156.1l-29.5,143.4h-49.9ZM1312.7,397.5h50.8c14.1,0,26.2,1.2,36.2,3.4,10,1.7,19.7,7.2,28.9,16.3,9.2,9.2,17.3,24.6,24.2,46.4l-76.6-373.6-63.5,307.5Z"/>
      </g>
      <g>
        <path class="cls-1" d="M63.9,672.2l113.8,487.9c.9,4.6,1.6,9.6,2.1,15s.7,10.5.7,15h.9c0-4.6.2-9.6.7-15s1.2-10.4,2.1-15l113.8-487.9h49.4v601.2h-46.1v-368.5c0-17.2.7-36.2,2.1-57.1,1.4-20.9,3.1-39.9,4.9-57.1h-.9c-1.9,16.6-4.5,34.9-8,55s-7,38.1-10.8,54.1l-84.6,373.6h-46.1l-84.6-373.6c-3.8-16-7.4-34.1-10.8-54.1-3.5-20-6.1-38.4-8-55h-.9c1.9,17.2,3.5,36.2,4.9,57.1s2.1,39.9,2.1,57.1v368.5H14.5v-601.2h49.4Z"/>
        <path class="cls-1" d="M359.6,1273.5l124.1-601.2h67.2l124.1,601.2h-49.4l-30.6-143.4h-156l-29.6,143.4h-49.8ZM453.6,1055.3h50.8c14.1,0,26.2,1.2,36.2,3.4,10,1.7,19.7,7.2,28.9,16.3,9.2,9.2,17.3,24.6,24.2,46.4l-76.6-373.6-63.5,307.5Z"/>
        <path class="cls-1" d="M687.7,1273.5v-601.2h150.4c37.6,0,67.1,14,88.4,42.1s32,72.2,32,132.3-2.5,49-7.5,64.4c-5,15.5-10.7,28.3-16.9,38.7-3.1,6.3-6.9,11.9-11.3,16.8s-9.1,9-14.1,12.4-10.1,6.3-15.3,8.6c-5.2,2.3-10.1,4.3-14.8,6v1.7c5-1.7,10.4-3.4,16.2-5.2,5.8-1.7,11.7-2.6,17.6-2.6s10.3,1,14.8,3,8.5,5.6,12,10.7c6.3,7.4,11.6,18.3,16,32.6,4.4,14.3,6.6,36.4,6.6,66.1l.5,173.5h-46.5v-168.3c0-16.6-2.4-28.8-7.3-36.5s-13.6-11.6-26.1-11.6l-148.1.9v215.6h-46.6ZM829.2,983.1c12.8,0,24.5-3,35-9s19.7-14.4,27.5-25.3,13.9-23.5,18.1-37.8,6.3-30.1,6.3-47.2c0-44.7-7.3-75.6-21.9-92.8s-34.6-25.8-59.9-25.8h-100.1v237.9h95Z"/>
        <path class="cls-1" d="M976.3,672.2h247.3v79h-201.2v195h194.6v70.4h-194.6v177.8h201.2v79h-247.3v-601.2h0Z"/>
      </g>
      <path class="cls-1" d="M1291.6,700.3c0-6.4,1.2-12.4,3.7-18.1,2.4-5.6,5.8-10.6,10.1-14.8,4.3-4.3,9.3-7.6,15.1-10s11.9-3.6,18.4-3.6,12.7,1.2,18.3,3.6,10.6,5.8,14.9,10c4.3,4.3,7.7,9.2,10.1,14.8,2.4,5.6,3.7,11.7,3.7,18.1s-1.2,12.4-3.7,18.1c-2.4,5.6-5.8,10.6-10.1,14.8-4.3,4.3-9.3,7.6-14.9,10.1s-11.7,3.6-18.3,3.6-12.7-1.2-18.4-3.6c-5.7-2.4-10.8-5.8-15.1-10.1s-7.7-9.2-10.1-14.8c-2.5-5.7-3.7-11.7-3.7-18.1ZM1303.2,700.3c0,4.9.9,9.5,2.8,13.8s4.5,8.2,7.8,11.4c3.3,3.2,7.1,5.7,11.4,7.6,4.3,1.8,8.9,2.8,13.8,2.8s9.5-.9,13.8-2.8c4.3-1.8,8.1-4.4,11.3-7.6,3.2-3.2,5.7-7,7.6-11.4s2.8-9,2.8-13.8-.9-9.5-2.8-13.8-4.4-8.2-7.6-11.4c-3.2-3.2-6.9-5.7-11.3-7.6-4.3-1.8-8.9-2.8-13.8-2.8s-9.5.9-13.8,2.8c-4.3,1.8-8.1,4.4-11.4,7.6s-5.9,7-7.8,11.4c-1.9,4.3-2.8,8.9-2.8,13.8ZM1321.5,723.3v-46.6h20c5.2,0,9.3,1.2,12.2,3.6s4.4,6.1,4.4,10.9-.6,6.3-1.8,7.3-2.5,2-3.8,3.2l1.7.3c1.1,0,2.2.5,3.1,1.5s1.4,2.7,1.4,5.2v14.6h-8.2v-11.9c0-2.3-1.2-3.5-3.7-3.5h-17.2v15.4h-8.1ZM1340.6,700.6c3,0,5.4-.7,7.2-2s2.7-3.4,2.7-6.1c0-6-3.1-9-9.3-9h-11.6v17.2h11Z"/>
    </g>
  </g>
</svg>